<!-- Exported by Character Map UWP -->
<svg height="100%" viewBox="64 0 896 1024" width="100%" xmlns="http://www.w3.org/2000/svg" xmlns:xlink="http://www.w3.org/1999/xlink">
  <path d="M368,640C418,640 461.917,647.5 499.75,662.5C537.583,677.5 569.25,698.917 594.75,726.75C620.25,754.583 639.5,788.167 652.5,827.5C665.5,866.833 672,911 672,960L672,1024L64,1024L64,960C64,911 70.4167,866.833 83.25,827.5C96.0833,788.167 115.25,754.583 140.75,726.75C166.25,698.917 198,677.5 236,662.5C274,647.5 318,640 368,640ZM368,576C341.333,576 316.917,570.833 294.75,560.5C272.583,550.167 253.583,536.25 237.75,518.75C221.917,501.25 209.667,480.833 201,457.5C192.333,434.167 188,409.667 188,384C188,358.333 192.333,333.833 201,310.5C209.667,287.167 221.917,266.75 237.75,249.25C253.583,231.75 272.583,217.833 294.75,207.5C316.917,197.167 341.333,192 368,192C394.667,192 419.083,197.167 441.25,207.5C463.417,217.833 482.417,231.75 498.25,249.25C514.083,266.75 526.333,287.167 535,310.5C543.667,333.833 548,358.333 548,384C548,409.667 543.667,434.167 535,457.5C526.333,480.833 514.083,501.25 498.25,518.75C482.417,536.25 463.417,550.167 441.25,560.5C419.083,570.833 394.667,576 368,576ZM912,0C925.333,0 936.667,4.66669 946,14C955.333,23.3334 960,34.6667 960,48L960,304C960,317.333 955.333,328.667 946,338C936.667,347.333 925.333,352 912,352L768,352L640,480L640,352L606,352C603.333,328.667 597.917,306.083 589.75,284.25C581.583,262.417 570.75,242.333 557.25,224C543.75,205.667 527.833,189.417 509.5,175.25C491.167,161.083 470.667,150 448,142L448,48C448,34.6667 452.667,23.3334 462,14C471.333,4.66669 482.667,0 496,0Z" fill="#ffffff" fill-opacity="1">
  </path>
</svg>