<!-- Exported by Character Map UWP -->
<svg height="100%" viewBox="0 128 960 896" width="100%" xmlns="http://www.w3.org/2000/svg" xmlns:xlink="http://www.w3.org/1999/xlink">
  <path d="M884,896L960,896L960,960L852,960C841.333,981 828.917,996.917 814.75,1007.75C800.583,1018.58 785,1024 768,1024C750,1024 732.75,1020.42 716.25,1013.25C699.75,1006.08 685.167,995.667 672.5,982C665.833,975 658.417,969.583 650.25,965.75C642.083,961.917 633.333,960 624,960C605.333,960 589.167,967.333 575.5,982C562.833,995.667 548.25,1006.08 531.75,1013.25C515.25,1020.42 498,1024 480,1024C462,1024 444.75,1020.42 428.25,1013.25C411.75,1006.08 397.167,995.667 384.5,982C377.833,975 370.333,969.583 362,965.75C353.667,961.917 345,960 336,960C317.333,960 301.167,967.333 287.5,982C274.833,995.667 260.25,1006.08 243.75,1013.25C227.25,1020.42 210,1024 192,1024C175,1024 159.417,1018.58 145.25,1007.75C131.083,996.917 118.667,981 108,960L0,960L0,896L76,896L0,743.5L0,665L128,622.5L128,384L204,384L268,256L384,256L384,128L576,128L576,256L692,256L756,384L832,384L832,622.5L960,665L960,743.5ZM448,256L512,256L512,192L448,192ZM276,384L684,384L652,320L308,320ZM192,601L480,505L768,601L768,448L192,448ZM431.5,938C436.5,943.667 442,948.167 448,951.5L448,583L64,711L64,728.5L165,930C170,940.333 175,947.917 180,952.75C185,957.583 189,960 192,960C201,960 209.667,958.083 218,954.25C226.333,950.417 233.833,945 240.5,938C253.167,924.333 267.75,913.917 284.25,906.75C300.75,899.583 318,896 336,896C354,896 371.25,899.583 387.75,906.75C404.25,913.917 418.833,924.333 431.5,938ZM896,728.5L896,711L512,583L512,951.5C518,948.167 523.5,943.667 528.5,938C541.167,924.333 555.75,913.917 572.25,906.75C588.75,899.583 606,896 624,896C642,896 659.25,899.583 675.75,906.75C692.25,913.917 706.833,924.333 719.5,938C733.167,952.667 749.333,960 768,960C771,960 775,957.583 780,952.75C785,947.917 790,940.333 795,930Z" fill="MediumSlateBlue" fill-opacity="1">
  </path>
</svg>