<svg height="70px" viewBox="0 128 1024 768" width="70px" xmlns="http://www.w3.org/2000/svg" xmlns:xlink="http://www.w3.org/1999/xlink">
  <path d="M925,344C940,352.333 953.667,362.583 966,374.75C978.333,386.917 988.75,400.25 997.25,414.75C1005.75,429.25 1012.33,444.75 1017,461.25C1021.67,477.75 1024,494.667 1024,512L960,512C960,494.667 956.583,478.167 949.75,462.5C942.917,446.833 933.75,433.25 922.25,421.75C910.75,410.25 897.167,401.083 881.5,394.25C865.833,387.417 849.333,384 832,384C814.333,384 797.75,387.417 782.25,394.25C766.75,401.083 753.25,410.25 741.75,421.75C730.25,433.25 721.083,446.833 714.25,462.5C707.417,478.167 704,494.667 704,512C704,542.333 697.083,571.167 683.25,598.5C669.417,625.833 650.333,648.5 626,666.5C647.667,677.5 667.25,691.083 684.75,707.25C702.25,723.417 717.167,741.417 729.5,761.25C741.833,781.083 751.333,802.417 758,825.25C764.667,848.083 768,871.667 768,896L704,896C704,869.667 698.917,844.833 688.75,821.5C678.583,798.167 664.833,777.833 647.5,760.5C630.167,743.167 609.833,729.417 586.5,719.25C563.167,709.083 538.333,704 512,704C485.667,704 460.833,709.083 437.5,719.25C414.167,729.417 393.833,743.167 376.5,760.5C359.167,777.833 345.417,798.167 335.25,821.5C325.083,844.833 320,869.667 320,896L256,896C256,871.667 259.333,848.083 266,825.25C272.667,802.417 282.167,781.083 294.5,761.25C306.833,741.417 321.75,723.417 339.25,707.25C356.75,691.083 376.333,677.5 398,666.5C373.667,648.5 354.583,625.833 340.75,598.5C326.917,571.167 320,542.333 320,512C320,494.667 316.583,478.167 309.75,462.5C302.917,446.833 293.75,433.25 282.25,421.75C270.75,410.25 257.167,401.083 241.5,394.25C225.833,387.417 209.333,384 192,384C174.333,384 157.75,387.417 142.25,394.25C126.75,401.083 113.25,410.25 101.75,421.75C90.25,433.25 81.0833,446.833 74.25,462.5C67.4167,478.167 64,494.667 64,512L0,512C0,494.667 2.33333,477.75 7,461.25C11.6667,444.75 18.25,429.25 26.75,414.75C35.25,400.25 45.6667,386.917 58,374.75C70.3333,362.583 84,352.333 99,344C88,332.333 79.4167,318.833 73.25,303.5C67.0833,288.167 64,272.333 64,256C64,238.667 67.4167,222.167 74.25,206.5C81.0833,190.833 90.25,177.25 101.75,165.75C113.25,154.25 126.75,145.083 142.25,138.25C157.75,131.417 174.333,128 192,128C209.333,128 225.833,131.417 241.5,138.25C257.167,145.083 270.75,154.25 282.25,165.75C293.75,177.25 302.917,190.833 309.75,206.5C316.583,222.167 320,238.667 320,256C320,272.333 316.917,288.167 310.75,303.5C304.583,318.833 296,332.333 285,344C312.333,359 334.667,379.667 352,406C370,379.333 393.083,358.333 421.25,343C449.417,327.667 479.667,320 512,320C544.333,320 574.583,327.667 602.75,343C630.917,358.333 654,379.333 672,406C689.333,379.667 711.667,359 739,344C728,332.333 719.417,318.833 713.25,303.5C707.083,288.167 704,272.333 704,256C704,238.667 707.417,222.167 714.25,206.5C721.083,190.833 730.25,177.25 741.75,165.75C753.25,154.25 766.75,145.083 782.25,138.25C797.75,131.417 814.333,128 832,128C849.333,128 865.833,131.417 881.5,138.25C897.167,145.083 910.75,154.25 922.25,165.75C933.75,177.25 942.917,190.833 949.75,206.5C956.583,222.167 960,238.667 960,256C960,272.333 956.917,288.167 950.75,303.5C944.583,318.833 936,332.333 925,344ZM128,256C128,265 129.667,273.333 133,281C136.333,288.667 140.917,295.417 146.75,301.25C152.583,307.083 159.333,311.667 167,315C174.667,318.333 183,320 192,320C201,320 209.333,318.333 217,315C224.667,311.667 231.417,307.083 237.25,301.25C243.083,295.417 247.667,288.667 251,281C254.333,273.333 256,265 256,256C256,247 254.333,238.667 251,231C247.667,223.333 243.083,216.583 237.25,210.75C231.417,204.917 224.667,200.333 217,197C209.333,193.667 201,192 192,192C183,192 174.667,193.667 167,197C159.333,200.333 152.583,204.917 146.75,210.75C140.917,216.583 136.333,223.333 133,231C129.667,238.667 128,247 128,256ZM512,640C529.333,640 545.833,636.583 561.5,629.75C577.167,622.917 590.75,613.75 602.25,602.25C613.75,590.75 622.917,577.25 629.75,561.75C636.583,546.25 640,529.667 640,512C640,494.667 636.583,478.167 629.75,462.5C622.917,446.833 613.75,433.25 602.25,421.75C590.75,410.25 577.167,401.083 561.5,394.25C545.833,387.417 529.333,384 512,384C494.333,384 477.75,387.417 462.25,394.25C446.75,401.083 433.25,410.25 421.75,421.75C410.25,433.25 401.083,446.833 394.25,462.5C387.417,478.167 384,494.667 384,512C384,529.667 387.417,546.25 394.25,561.75C401.083,577.25 410.25,590.75 421.75,602.25C433.25,613.75 446.75,622.917 462.25,629.75C477.75,636.583 494.333,640 512,640ZM768,256C768,265 769.667,273.333 773,281C776.333,288.667 780.917,295.417 786.75,301.25C792.583,307.083 799.333,311.667 807,315C814.667,318.333 823,320 832,320C841,320 849.333,318.333 857,315C864.667,311.667 871.417,307.083 877.25,301.25C883.083,295.417 887.667,288.667 891,281C894.333,273.333 896,265 896,256C896,247 894.333,238.667 891,231C887.667,223.333 883.083,216.583 877.25,210.75C871.417,204.917 864.667,200.333 857,197C849.333,193.667 841,192 832,192C823,192 814.667,193.667 807,197C799.333,200.333 792.583,204.917 786.75,210.75C780.917,216.583 776.333,223.333 773,231C769.667,238.667 768,247 768,256Z" fill="white" fill-opacity="1">
  </path>
</svg>