<svg height="70px" viewBox="128 0 768 1024" width="70px" xmlns="http://www.w3.org/2000/svg" xmlns:xlink="http://www.w3.org/1999/xlink">
  <path d="M512,0C547.333,0 581.333,4.58337 614,13.75C646.667,22.9167 677.25,35.8334 705.75,52.5C734.25,69.1667 760.167,89.1667 783.5,112.5C806.833,135.833 826.833,161.75 843.5,190.25C860.167,218.75 873.083,249.333 882.25,282C891.417,314.667 896,348.667 896,384L896,608C896,621.333 893.5,633.833 888.5,645.5C883.5,657.167 876.667,667.333 868,676C859.333,684.667 849.167,691.5 837.5,696.5C825.833,701.5 813.333,704 800,704L704,704L704,384L800,384C805.667,384 811.167,384.583 816.5,385.75C821.833,386.917 827,388.333 832,390C832,345 823.833,302.75 807.5,263.25C791.167,223.75 768.75,189.25 740.25,159.75C711.75,130.25 677.917,106.917 638.75,89.75C599.583,72.5834 557.333,64.0001 512,64C482.667,64.0001 454.333,67.8334 427,75.5C399.667,83.1667 374.167,93.9167 350.5,107.75C326.833,121.583 305.25,138.25 285.75,157.75C266.25,177.25 249.583,198.833 235.75,222.5C221.917,246.167 211.167,271.667 203.5,299C195.833,326.333 192,354.667 192,384L192,390C197,388.333 202.167,386.917 207.5,385.75C212.833,384.583 218.333,384 224,384L320,384L320,704L256,704L256,768C256,785.667 259.333,802.25 266,817.75C272.667,833.25 281.833,846.833 293.5,858.5C305.167,870.167 318.75,879.333 334.25,886C349.75,892.667 366.333,896 384,896C384,887 385.667,878.667 389,871C392.333,863.333 396.917,856.583 402.75,850.75C408.583,844.917 415.333,840.333 423,837C430.667,833.667 439,832 448,832L576,832C585,832 593.333,833.667 601,837C608.667,840.333 615.417,844.917 621.25,850.75C627.083,856.583 631.667,863.333 635,871C638.333,878.667 640,887 640,896L640,960C640,969 638.333,977.333 635,985C631.667,992.667 627.083,999.417 621.25,1005.25C615.417,1011.08 608.667,1015.67 601,1019C593.333,1022.33 585,1024 576,1024L448,1024C439,1024 430.667,1022.33 423,1019C415.333,1015.67 408.583,1011.08 402.75,1005.25C396.917,999.417 392.333,992.667 389,985C385.667,977.333 384,969 384,960C357.333,960 332.417,955 309.25,945C286.083,935 265.75,921.25 248.25,903.75C230.75,886.25 217,865.917 207,842.75C197,819.583 192,794.667 192,768L192,698C182.333,694.667 173.583,690 165.75,684C157.917,678 151.25,671.083 145.75,663.25C140.25,655.417 135.917,646.75 132.75,637.25C129.583,627.75 128,618 128,608L128,384C128,348.667 132.583,314.667 141.75,282C150.917,249.333 163.833,218.75 180.5,190.25C197.167,161.75 217.167,135.833 240.5,112.5C263.833,89.1667 289.75,69.1667 318.25,52.5C346.75,35.8334 377.333,22.9167 410,13.75C442.667,4.58337 476.667,0 512,0ZM448,960L576,960L576,896L448,896ZM224,448C215.333,448 207.833,451.167 201.5,457.5C195.167,463.833 192,471.333 192,480L192,608C192,616.667 195.167,624.167 201.5,630.5C207.833,636.833 215.333,640 224,640L256,640L256,448ZM832,480C832,471.333 828.833,463.833 822.5,457.5C816.167,451.167 808.667,448 800,448L768,448L768,640L800,640C808.667,640 816.167,636.833 822.5,630.5C828.833,624.167 832,616.667 832,608Z" fill="#FFFFFF" fill-opacity="1">
  </path>
</svg>