<svg height="70px" viewBox="0 0 960 1023" width="70px" xmlns="http://www.w3.org/2000/svg" xmlns:xlink="http://www.w3.org/1999/xlink">
  <path d="M480,0C497,0 513.167,1.08337 528.5,3.25C543.833,5.41669 558.75,8.75 573.25,13.25C587.75,17.75 602,23.4167 616,30.25C630,37.0834 644.167,45 658.5,54C682.5,69.3334 706.5,81.8334 730.5,91.5C754.5,101.167 778.833,108.667 803.5,114C828.167,119.333 853.5,123 879.5,125C905.5,127 932.333,128 960,128L960,384C960,432.667 953.917,478.833 941.75,522.5C929.583,566.167 912.75,607.583 891.25,646.75C869.75,685.917 844.333,722.833 815,757.5C785.667,792.167 753.833,824.75 719.5,855.25C685.167,885.75 648.917,914.167 610.75,940.5C572.583,966.833 534.167,991.167 495.5,1013.5L480,1022.5L464.5,1013.5C425.833,991.167 387.417,966.833 349.25,940.5C311.083,914.167 274.833,885.75 240.5,855.25C206.167,824.75 174.333,792.167 145,757.5C115.667,722.833 90.25,685.917 68.75,646.75C47.25,607.583 30.4167,566.167 18.25,522.5C6.08333,478.833 0,432.667 0,384L0,128C27.6667,128 54.5,127 80.5,125C106.5,123 131.833,119.333 156.5,114C181.167,108.667 205.5,101.167 229.5,91.5C253.5,81.8334 277.5,69.3334 301.5,54C329.833,35.6667 358.167,22.0834 386.5,13.25C414.833,4.41669 446,0 480,0ZM896,191C846.333,188.333 798.75,180.333 753.25,167C707.75,153.667 664,133.5 622,106.5C599.333,91.8334 576.75,81.0834 554.25,74.25C531.75,67.4167 507,64.0001 480,64C453,64.0001 428.25,67.4167 405.75,74.25C383.25,81.0834 360.667,91.8334 338,106.5C296,133.5 252.25,153.667 206.75,167C161.25,180.333 113.667,188.333 64,191L64,384C64,426.333 69.5833,467 80.75,506C91.9167,545 107.167,582.167 126.5,617.5C145.833,652.833 168.833,686.25 195.5,717.75C222.167,749.25 250.833,778.833 281.5,806.5C312.167,834.167 344.417,859.833 378.25,883.5C412.083,907.167 446,928.833 480,948.5C514,928.833 547.917,907.167 581.75,883.5C615.583,859.833 647.833,834.167 678.5,806.5C709.167,778.833 737.833,749.25 764.5,717.75C791.167,686.25 814.167,652.833 833.5,617.5C852.833,582.167 868.083,545 879.25,506C890.417,467 896,426.333 896,384Z" fill="white" fill-opacity="1">
  </path>
</svg>